# xmcd
#
# Track frame offsets:
# 150
# 11361
# 22210
# 35952
# 50704
# 62071
# 76157
# 90236
# 101627
# 115374
# 124709
# 140606
# 153032
# 165978
# 175559
# 186556
# 197114
# 208215
# 220129
# 231080
# 243794
# 255790
# 264516
#
# Disc length: 3607 seconds
#
# Revision: 0
# Processed by: cddbd v1.5.2PL0 Copyright (c) Steve Scherf et al.
# Submitted via: Audion 3.0.2 (http://www.panic.com/audion/)
#
DISCID=370e1517
DTITLE=Assimil - Assimil_CD4
DYEAR=1900
DGENRE=
TTITLE0=Lekcija
TTITLE1=Lekcija
TTITLE2=Lekcija
TTITLE3=Lekcija
TTITLE4=Lekcija
TTITLE5=Lekcija
TTITLE6=Lekcija
TTITLE7=Lekcija
TTITLE8=Lekcija
TTITLE9=Lekcija
TTITLE10=Lekcija
TTITLE11=Lekcija
TTITLE12=Lekcija
TTITLE13=Lekcija
TTITLE14=Lekcija
TTITLE15=Lekcija
TTITLE16=Lekcija
TTITLE17=Lekcija
TTITLE18=Lekcija
TTITLE19=Lekcija
TTITLE20=Lekcija
TTITLE21=Lekcija
TTITLE22=Appendice grammatical
EXTD=
EXTT0=
EXTT1=
EXTT2=
EXTT3=
EXTT4=
EXTT5=
EXTT6=
EXTT7=
EXTT8=
EXTT9=
EXTT10=
EXTT11=
EXTT12=
EXTT13=
EXTT14=
EXTT15=
EXTT16=
EXTT17=
EXTT18=
EXTT19=
EXTT20=
EXTT21=
EXTT22=
PLAYORDER=
